<svg xmlns="http://www.w3.org/2000/svg" xmlns:xlink="http://www.w3.org/1999/xlink" width="120" height="120" viewBox="0 0 120 120">
  <defs>
    <clipPath id="clip-path">
      <rect id="Rectángulo_404115" data-name="Rectángulo 404115" width="86" height="86" transform="translate(0 -0.441)" fill="none" stroke="rgba(0,0,0,0)" stroke-width="1"/>
    </clipPath>
  </defs>
  <g id="Grupo_1112349" data-name="Grupo 1112349" transform="translate(-315.671 -1714)">
    <g id="Grupo_1098742" data-name="Grupo 1098742" transform="translate(-887.364 1325.543)">
      <g id="Rectángulo_400898" data-name="Rectángulo 400898" transform="translate(1203.035 388.457)" fill="#c6e697" stroke="#fff" stroke-width="3" opacity="0.859">
        <rect width="120" height="120" rx="60" stroke="none"/>
        <rect x="1.5" y="1.5" width="117" height="117" rx="58.5" fill="none"/>
      </g>
      <g id="Rectángulo_400907" data-name="Rectángulo 400907" transform="translate(1203.035 388.457)" fill="none" stroke="#fff" stroke-width="3">
        <rect width="120" height="120" rx="60" stroke="none"/>
        <rect x="1.5" y="1.5" width="117" height="117" rx="58.5" fill="none"/>
      </g>
    </g>
    <g id="Grupo_1112345" data-name="Grupo 1112345" transform="translate(332.671 1729.441)">
      <g id="Grupo_1112344" data-name="Grupo 1112344" clip-path="url(#clip-path)">
        <path id="Trazado_902945" data-name="Trazado 902945" d="M155.213,100.606a30.606,30.606,0,1,0-30.606,30.606,30.606,30.606,0,0,0,30.606-30.606" transform="translate(-77.653 -57.827)" fill="#ebedf0" stroke="rgba(0,0,0,0)" stroke-width="1"/>
        <path id="Trazado_902946" data-name="Trazado 902946" d="M89.472,390l.306,16.694H6V390H44.439l-1.962,5.217a3.333,3.333,0,0,0,3.13,4.521,3.144,3.144,0,0,0,2.922-1.975l1.989-4.98L51.576,390h4.507l3.422,7.985a2.884,2.884,0,0,0,2.657,1.753,2.948,2.948,0,0,0,2.866-3.575L63.651,390H89.472Z" transform="translate(-4.957 -322.179)" fill="#fff" stroke="rgba(0,0,0,0)" stroke-width="1"/>
        <path id="Trazado_902947" data-name="Trazado 902947" d="M387.565,54A5.565,5.565,0,1,1,382,59.565,5.563,5.563,0,0,1,387.565,54" transform="translate(-315.57 -44.609)" fill="#8ff3ad" stroke="rgba(0,0,0,0)" stroke-width="1"/>
        <path id="Trazado_902948" data-name="Trazado 902948" d="M287.515,239.495a3.693,3.693,0,0,1,1.405,4.841,2.78,2.78,0,0,1-3.728,1.252l-3.075-1.544-4.174-2.56v-5.69a5.649,5.649,0,0,0-5.064-5.634c4.967.056,9.238,5.537,9.238,5.537l1.391,1.391Z" transform="translate(-225.426 -190.135)" fill="#ff96a9" stroke="rgba(0,0,0,0)" stroke-width="1"/>
        <path id="Trazado_902949" data-name="Trazado 902949" d="M302.945,396.163a2.92,2.92,0,0,1-5.523,1.822L294,390h7.568Z" transform="translate(-242.874 -322.179)" fill="#ff96a9" stroke="rgba(0,0,0,0)" stroke-width="1"/>
        <path id="Trazado_902950" data-name="Trazado 902950" d="M189.709,238l-4.174,3.13-1.976,5.926a2.762,2.762,0,0,1-3.283,1.809l-.334-.083a2.761,2.761,0,0,1-1.975-3.436l1.767-6.163a3.009,3.009,0,0,1,.89-1.405l7.5-6.413A5.64,5.64,0,0,1,191.81,230h1.975c.181,0,.348.014.529.028h.07a5.649,5.649,0,0,1,5.064,5.634v12.423l5.565,6.956.612,2.782h-7.568l-3.6-2.407L192.325,254a5.843,5.843,0,0,1-2.574-4.215v-.014a5,5,0,0,1-.042-.654V238Z" transform="translate(-146.93 -190.003)" fill="#ff96a9" stroke="rgba(0,0,0,0)" stroke-width="1"/>
        <path id="Trazado_902951" data-name="Trazado 902951" d="M258.869,142A4.869,4.869,0,1,1,254,146.869,4.875,4.875,0,0,1,258.869,142" transform="translate(-209.83 -117.306)" fill="#fff" stroke="rgba(0,0,0,0)" stroke-width="1"/>
        <path id="Trazado_902952" data-name="Trazado 902952" d="M235.081,349.394l-.9,2.407H227.04l.515-1.391.1-.236,2.727-6.413a5.842,5.842,0,0,0,2.574,4.215Z" transform="translate(-187.558 -283.98)" fill="#ff96a9" stroke="rgba(0,0,0,0)" stroke-width="1"/>
        <path id="Trazado_902953" data-name="Trazado 902953" d="M223.826,390l-1.057,2.782-1.989,4.98a3.144,3.144,0,0,1-2.922,1.975,3.333,3.333,0,0,1-3.13-4.521L216.689,390Z" transform="translate(-177.207 -322.179)" fill="#ff96a9" stroke="rgba(0,0,0,0)" stroke-width="1"/>
        <path id="Trazado_902954" data-name="Trazado 902954" d="M19.912,106.171c-5.565,0-11.13-2.782-11.13-8.347a6.093,6.093,0,0,1,1.391-4.174S6,92.259,6,85.3s5.565-6.956,5.565-6.956S10.174,70,19.912,70c4.174,0,11.13,5.565,6.956,12.521,0,0,5.565,1.391,5.565,11.13a12.417,12.417,0,0,1-12.521,12.521" transform="translate(-4.957 -57.827)" fill="#8ff3ad" stroke="rgba(0,0,0,0)" stroke-width="1"/>
        <path id="Trazado_902955" data-name="Trazado 902955" d="M253.913,147.825a5.913,5.913,0,1,1,5.913-5.913,5.919,5.919,0,0,1-5.913,5.913m0-9.738a3.826,3.826,0,1,0,3.826,3.826,3.83,3.83,0,0,0-3.826-3.826" transform="translate(-204.873 -112.35)" fill="#303e58" stroke="rgba(0,0,0,0)" stroke-width="1"/>
        <path id="Trazado_902956" data-name="Trazado 902956" d="M241.084,311.944a1.043,1.043,0,0,1-1.033-.906,5.992,5.992,0,0,1-.051-.792v-5.2a1.043,1.043,0,0,1,2.087,0v5.2a3.962,3.962,0,0,0,.033.516,1.045,1.045,0,0,1-1.036,1.182" transform="translate(-198.264 -251.135)" fill="#303e58" stroke="rgba(0,0,0,0)" stroke-width="1"/>
        <path id="Trazado_902957" data-name="Trazado 902957" d="M255.668,263.78a3.93,3.93,0,0,1-3.616-2.385l-3.3-7.7-5.473-3.653a6.876,6.876,0,0,1-3.032-4.966,1.043,1.043,0,1,1,2.073-.236,4.8,4.8,0,0,0,2.114,3.464l5.735,3.828a1.043,1.043,0,0,1,.379.457l3.422,7.985a1.846,1.846,0,0,0,1.7,1.12,1.9,1.9,0,0,0,1.848-2.3l-1.378-6.165-.561-2.548-5.413-6.766a1.044,1.044,0,0,1-.228-.652V230.837a4.6,4.6,0,0,0-4.127-4.6,1.043,1.043,0,0,1,.213-2.076,6.678,6.678,0,0,1,6,6.672v12.058l5.336,6.67a1.046,1.046,0,0,1,.2.428l.612,2.782,1.377,6.16a3.991,3.991,0,0,1-3.884,4.846" transform="translate(-198.462 -185.177)" fill="#303e58" stroke="rgba(0,0,0,0)" stroke-width="1"/>
        <path id="Trazado_902958" data-name="Trazado 902958" d="M176,245.035a3.869,3.869,0,0,1-.931-.114l-.337-.084a3.836,3.836,0,0,1-2.358-1.778A3.782,3.782,0,0,1,172,240.1l1.766-6.161a4.03,4.03,0,0,1,1.2-1.893l.02-.017,7.5-6.413A6.682,6.682,0,0,1,186.848,224h1.975c.209,0,.394.014.573.028l.036,0a1.043,1.043,0,0,1-.16,2.081l-.037,0c-.152-.012-.284-.022-.412-.022h-1.975a4.6,4.6,0,0,0-3.005,1.11l-7.491,6.407a1.974,1.974,0,0,0-.575.9l-1.768,6.167a1.707,1.707,0,0,0,.166,1.335,1.733,1.733,0,0,0,1.06.8l.334.084a1.712,1.712,0,0,0,2.041-1.129l1.974-5.923a1.043,1.043,0,0,1,.364-.5l5.565-4.174a1.043,1.043,0,0,1,1.252,1.669l-5.3,3.978-1.872,5.617A3.787,3.787,0,0,1,176,245.035" transform="translate(-141.968 -185.046)" fill="#303e58" stroke="rgba(0,0,0,0)" stroke-width="1"/>
        <path id="Trazado_902959" data-name="Trazado 902959" d="M212.9,388.091a4.377,4.377,0,0,1-4.106-5.934l1.961-5.215.513-1.386.014-.035.1-.237a1.043,1.043,0,0,1,1.93.795l-.09.219-.508,1.373-1.964,5.222A2.29,2.29,0,0,0,212.9,386a2.108,2.108,0,0,0,1.951-1.316l1.991-4.984a1.044,1.044,0,0,1,1.938.774l-1.99,4.98a4.209,4.209,0,0,1-3.89,2.632" transform="translate(-172.251 -309.488)" fill="#303e58" stroke="rgba(0,0,0,0)" stroke-width="1"/>
        <path id="Trazado_902960" data-name="Trazado 902960" d="M241.283,339.814a1.047,1.047,0,1,1,1.043-1.057v.014a1.044,1.044,0,0,1-1.043,1.043" transform="translate(-198.462 -278.991)" fill="#303e58" stroke="rgba(0,0,0,0)" stroke-width="1"/>
        <path id="Trazado_902961" data-name="Trazado 902961" d="M325.351,268.268a3.815,3.815,0,0,1-1.7-.4l-3.08-1.547a1.043,1.043,0,1,1,.937-1.865L324.585,266a1.739,1.739,0,0,0,2.325-.783,2.641,2.641,0,0,0-1.007-3.484l-4.007-2.407a1.042,1.042,0,0,1-.2-.157l-1.391-1.391a1.043,1.043,0,0,1,1.476-1.475l1.3,1.3,3.9,2.341a4.709,4.709,0,0,1,1.8,6.205,3.818,3.818,0,0,1-3.426,2.116" transform="translate(-264.351 -211.482)" fill="#303e58" stroke="rgba(0,0,0,0)" stroke-width="1"/>
        <path id="Trazado_902962" data-name="Trazado 902962" d="M388.52,386.087H369.043a1.043,1.043,0,1,1,0-2.087H388.52a1.043,1.043,0,1,1,0,2.087" transform="translate(-304.005 -317.223)" fill="#979faf" stroke="rgba(0,0,0,0)" stroke-width="1"/>
        <path id="Trazado_902963" data-name="Trazado 902963" d="M84.515,482.087H1.043a1.043,1.043,0,1,1,0-2.087H84.515a1.043,1.043,0,1,1,0,2.087" transform="translate(0 -396.528)" fill="#979faf" stroke="rgba(0,0,0,0)" stroke-width="1"/>
        <path id="Trazado_902964" data-name="Trazado 902964" d="M33.208,386.087H1.043a1.043,1.043,0,1,1,0-2.087H33.208a1.043,1.043,0,0,1,0,2.087" transform="translate(0 -317.223)" fill="#979faf" stroke="rgba(0,0,0,0)" stroke-width="1"/>
        <path id="Trazado_902965" data-name="Trazado 902965" d="M382.608,61.216a6.608,6.608,0,1,1,6.608-6.608,6.616,6.616,0,0,1-6.608,6.608m0-11.13a4.521,4.521,0,1,0,4.521,4.521,4.526,4.526,0,0,0-4.521-4.521" transform="translate(-310.614 -39.653)" fill="#303e58" stroke="rgba(0,0,0,0)" stroke-width="1"/>
        <path id="Trazado_902966" data-name="Trazado 902966" d="M409.043,4.869A1.044,1.044,0,0,1,408,3.826V1.043a1.043,1.043,0,1,1,2.087,0V3.826a1.044,1.044,0,0,1-1.043,1.043" transform="translate(-337.049)" fill="#303e58" stroke="rgba(0,0,0,0)" stroke-width="1"/>
        <path id="Trazado_902967" data-name="Trazado 902967" d="M409.043,148.869A1.044,1.044,0,0,1,408,147.826v-2.782a1.043,1.043,0,0,1,2.087,0v2.782a1.044,1.044,0,0,1-1.043,1.043" transform="translate(-337.049 -118.958)" fill="#303e58" stroke="rgba(0,0,0,0)" stroke-width="1"/>
        <path id="Trazado_902968" data-name="Trazado 902968" d="M342.168,43.478a1.038,1.038,0,0,1-.521-.14l-2.407-1.391a1.043,1.043,0,0,1,1.044-1.806l2.407,1.391a1.043,1.043,0,0,1-.523,1.947" transform="translate(-279.816 -33.043)" fill="#303e58" stroke="rgba(0,0,0,0)" stroke-width="1"/>
        <path id="Trazado_902969" data-name="Trazado 902969" d="M466.888,115.478a1.038,1.038,0,0,1-.521-.14l-2.407-1.391A1.043,1.043,0,1,1,465,112.14l2.407,1.391a1.044,1.044,0,0,1-.523,1.947" transform="translate(-382.847 -92.523)" fill="#303e58" stroke="rgba(0,0,0,0)" stroke-width="1"/>
        <path id="Trazado_902970" data-name="Trazado 902970" d="M339.764,115.478a1.044,1.044,0,0,1-.523-1.947l2.407-1.391a1.043,1.043,0,0,1,1.044,1.806l-2.407,1.391a1.038,1.038,0,0,1-.521.14" transform="translate(-279.816 -92.523)" fill="#303e58" stroke="rgba(0,0,0,0)" stroke-width="1"/>
        <path id="Trazado_902971" data-name="Trazado 902971" d="M464.484,43.478a1.044,1.044,0,0,1-.523-1.947l2.407-1.391a1.043,1.043,0,1,1,1.044,1.806l-2.407,1.391a1.038,1.038,0,0,1-.521.14" transform="translate(-382.848 -33.044)" fill="#303e58" stroke="rgba(0,0,0,0)" stroke-width="1"/>
        <path id="Trazado_902972" data-name="Trazado 902972" d="M81.043,168.693A1.044,1.044,0,0,1,80,167.65V137.043a1.043,1.043,0,1,1,2.087,0V167.65a1.044,1.044,0,0,1-1.043,1.043" transform="translate(-66.088 -112.35)" fill="#303e58" stroke="rgba(0,0,0,0)" stroke-width="1"/>
        <path id="Trazado_902973" data-name="Trazado 902973" d="M81.044,198.26a1.043,1.043,0,0,1-.627-1.878l5.565-4.174a1.043,1.043,0,0,1,1.252,1.669l-5.565,4.174a1.039,1.039,0,0,1-.625.209" transform="translate(-66.088 -158.611)" fill="#303e58" stroke="rgba(0,0,0,0)" stroke-width="1"/>
        <path id="Trazado_902974" data-name="Trazado 902974" d="M61.217,166.26a1.04,1.04,0,0,1-.738-.306l-4.174-4.174a1.043,1.043,0,1,1,1.476-1.475l4.174,4.174a1.043,1.043,0,0,1-.738,1.781" transform="translate(-46.261 -132.176)" fill="#303e58" stroke="rgba(0,0,0,0)" stroke-width="1"/>
        <path id="Trazado_902975" data-name="Trazado 902975" d="M14.955,102.258A14.968,14.968,0,0,1,6.725,100a8.3,8.3,0,0,1-3.943-7.128,7.893,7.893,0,0,1,.924-3.815C2.258,88.049,0,85.636,0,80.347c0-5.878,3.615-7.437,5.5-7.851a8.493,8.493,0,0,1,1.836-5.6c1.628-1.922,4.192-2.9,7.623-2.9,2.991,0,6.509,2.228,8.181,5.182a8.361,8.361,0,0,1,.223,7.878C25.2,78.086,28.52,81,28.52,88.694c0,9.356-7.932,13.564-13.564,13.564m0-36.171c-2.78,0-4.8.722-6.019,2.145a6.856,6.856,0,0,0-1.3,4.991,1.046,1.046,0,0,1-1.03,1.211c-.457.006-4.521.224-4.521,5.913,0,6.039,3.33,7.31,3.472,7.361a1.037,1.037,0,0,1,.4,1.724,5.129,5.129,0,0,0-1.086,3.436c0,3.518,3.156,7.3,10.086,7.3,4.766,0,11.477-3.561,11.477-11.477,0-8.709-4.59-10.067-4.786-10.12a1.037,1.037,0,0,1-.631-1.546,6.427,6.427,0,0,0,.3-6.817,8.35,8.35,0,0,0-6.365-4.123" transform="translate(0 -52.87)" fill="#303e58" stroke="rgba(0,0,0,0)" stroke-width="1"/>
      </g>
    </g>
  </g>
</svg>
