<svg xmlns="http://www.w3.org/2000/svg" xmlns:xlink="http://www.w3.org/1999/xlink" width="72" height="72" viewBox="0 0 72 72">
  <defs>
    <clipPath id="clip-path">
      <rect id="Rectángulo_404166" data-name="Rectángulo 404166" width="43.167" height="52.537" transform="translate(0 0)" fill="none"/>
    </clipPath>
  </defs>
  <g id="Grupo_1112450" data-name="Grupo 1112450" transform="translate(-439.47 -7013)">
    <g id="Grupo_1098580" data-name="Grupo 1098580" transform="translate(20.47 5892)">
      <path id="Trazado_824488" data-name="Trazado 824488" d="M36,0A36,36,0,1,1,0,36,36,36,0,0,1,36,0Z" transform="translate(419 1121)" fill="#89a068"/>
    </g>
    <g id="Grupo_1112449" data-name="Grupo 1112449" transform="translate(455.459 7022.732)">
      <g id="Grupo_1112448" data-name="Grupo 1112448" transform="translate(0 -0.001)" clip-path="url(#clip-path)">
        <path id="Trazado_905633" data-name="Trazado 905633" d="M1275.636,2983.035l.031-.036c.025.048-.015.031-.034.033Z" transform="translate(-1253.189 -2930.516)" fill="#39929d"/>
        <path id="Trazado_905634" data-name="Trazado 905634" d="M1275.319,2984.913l-.006.02.009-.017,0,0" transform="translate(-1252.875 -2932.396)" fill="#39929d"/>
        <rect id="Rectángulo_404163" data-name="Rectángulo 404163" width="5.252" height="1.015" transform="translate(13.736 5.641) rotate(-79.186)" fill="#313133"/>
        <path id="Trazado_905635" data-name="Trazado 905635" d="M775.269,20.99l1.188.227-1.022,5.349-1.188-.227Zm.961.381-.807-.154-.949,4.968.807.154Z" transform="translate(-760.625 -20.621)" fill="#313133"/>
        <path id="Trazado_905636" data-name="Trazado 905636" d="M802.323,39.514h0a.361.361,0,0,0,.441-.279l.848-4.441a.381.381,0,0,0-.3-.437.361.361,0,0,0-.441.279l-.848,4.441a.381.381,0,0,0,.3.437" transform="translate(-787.911 -33.744)" fill="#313133"/>
        <path id="Trazado_905637" data-name="Trazado 905637" d="M796.523,33.634l.848-4.441a.446.446,0,0,1,.2-.292.467.467,0,0,1,.362-.064.48.48,0,0,1,.369.55l-.848,4.441a.446.446,0,0,1-.2.292.467.467,0,0,1-.362.064.482.482,0,0,1-.369-.55m1.363-4.607a.274.274,0,0,0-.213.037.253.253,0,0,0-.111.166l-.848,4.441a.285.285,0,0,0,.221.324.274.274,0,0,0,.213-.037.253.253,0,0,0,.111-.166l.848-4.441a.281.281,0,0,0-.138-.291.292.292,0,0,0-.083-.033" transform="translate(-782.501 -28.319)" fill="#313133"/>
        <path id="Trazado_905638" data-name="Trazado 905638" d="M773.582,11.579a.912.912,0,0,0,.26.1.886.886,0,0,0,.678-.12.853.853,0,0,0,.374-.558l.848-4.441a.891.891,0,0,0-1.359-.907.853.853,0,0,0-.374.558l-.848,4.441a.879.879,0,0,0,.422.925" transform="translate(-759.541 -5.416)" fill="#313133"/>
        <path id="Trazado_905639" data-name="Trazado 905639" d="M767.667,5.22l.848-4.441a.949.949,0,0,1,.416-.621.988.988,0,0,1,1.508,1.006L769.591,5.6a.949.949,0,0,1-.416.621.983.983,0,0,1-.752.134,1.009,1.009,0,0,1-.287-.113.98.98,0,0,1-.468-1.027M769.64.213a.788.788,0,0,0-.6.107.756.756,0,0,0-.332.5l-.848,4.441a.786.786,0,0,0,.375.823.814.814,0,0,0,.232.092.788.788,0,0,0,.6-.107.757.757,0,0,0,.332-.5l.848-4.441A.782.782,0,0,0,769.872.3a.813.813,0,0,0-.232-.091" transform="translate(-754.144 0.001)" fill="#313133"/>
        <rect id="Rectángulo_404164" data-name="Rectángulo 404164" width="1.015" height="4.957" transform="matrix(0.843, -0.538, 0.538, 0.843, 5.379, 3.306)" fill="#313133"/>
        <path id="Trazado_905640" data-name="Trazado 905640" d="M298.111,149.907l1.019-.651L301.9,153.6l-1.019.651Zm.96-.383-.692.442,2.563,4.014.692-.442Z" transform="translate(-292.866 -146.63)" fill="#313133"/>
        <path id="Trazado_905641" data-name="Trazado 905641" d="M331.815,168.414h0a.4.4,0,0,0,.106-.547l-2.231-3.494a.4.4,0,0,0-.683.436l2.231,3.494a.4.4,0,0,0,.577.111" transform="translate(-323.156 -161.297)" fill="#313133"/>
        <path id="Trazado_905642" data-name="Trazado 905642" d="M325.737,162.929l-2.231-3.494a.5.5,0,0,1,.518-.763.5.5,0,0,1,.328.223l2.231,3.494a.5.5,0,0,1-.131.678h0a.5.5,0,0,1-.387.085l-.019,0a.5.5,0,0,1-.309-.219m.659.059-.056-.079a.308.308,0,0,0,.08-.416L324.189,159a.308.308,0,1,0-.519.331l2.231,3.494a.308.308,0,0,0,.439.085Z" transform="translate(-317.737 -155.871)" fill="#313133"/>
        <path id="Trazado_905643" data-name="Trazado 905643" d="M303.024,140.639l.033.007a.917.917,0,0,0,.7-.154h0a.912.912,0,0,0,.238-1.233l-2.231-3.494a.913.913,0,0,0-1.538.982l2.231,3.494a.917.917,0,0,0,.564.4" transform="translate(-294.806 -132.962)" fill="#313133"/>
        <path id="Trazado_905644" data-name="Trazado 905644" d="M296.962,134.876l-2.231-3.494a1.01,1.01,0,1,1,1.7-1.087l2.231,3.494a1.01,1.01,0,0,1-.263,1.364l-.008.006h0a1.014,1.014,0,0,1-.771.164l-.036-.008a1.018,1.018,0,0,1-.624-.44m1.538-.982-2.231-3.494a.816.816,0,0,0-1.375.878l2.231,3.494a.816.816,0,0,0,1.162.224l0,0a.815.815,0,0,0,.21-1.1" transform="translate(-289.389 -127.545)" fill="#313133"/>
        <rect id="Rectángulo_404165" data-name="Rectángulo 404165" width="1.015" height="4.88" transform="translate(0.429 10.778) rotate(-72.038)" fill="#313133"/>
        <path id="Trazado_905645" data-name="Trazado 905645" d="M17.413,551.906l.373-1.15,4.827,1.565-.373,1.15Zm.5-.906-.253.781,4.458,1.445.253-.781Z" transform="translate(-17.107 -541.066)" fill="#313133"/>
        <path id="Trazado_905646" data-name="Trazado 905646" d="M38.995,560.441h0a.393.393,0,0,0-.244-.517l-3.894-1.262a.393.393,0,0,0-.486.23h0a.393.393,0,0,0,.244.517l3.894,1.262a.393.393,0,0,0,.486-.23" transform="translate(-33.739 -548.813)" fill="#313133"/>
        <path id="Trazado_905647" data-name="Trazado 905647" d="M33.078,555.357l-3.894-1.262a.49.49,0,0,1,.3-.932l3.894,1.262a.49.49,0,0,1-.261.943l-.041-.011m-4.018-1.836a.3.3,0,0,0,.184.39l3.894,1.262A.3.3,0,0,0,33.5,555a.3.3,0,0,0-.184-.39l-3.894-1.262-.025-.007a.3.3,0,0,0-.342.18" transform="translate(-28.338 -543.408)" fill="#313133"/>
        <path id="Trazado_905648" data-name="Trazado 905648" d="M10.1,532.838a.9.9,0,0,0,1.041-.547h0a.9.9,0,0,0-.56-1.186L6.69,529.842a.9.9,0,1,0-.555,1.713l3.894,1.262c.025.008.05.015.075.021" transform="translate(-5.415 -520.477)" fill="#313133"/>
        <path id="Trazado_905649" data-name="Trazado 905649" d="M4.584,527.491.69,526.229a1,1,0,1,1,.615-1.9L5.2,525.594a1,1,0,0,1-.532,1.92h0c-.028-.006-.056-.014-.083-.023M.25,524.986a.8.8,0,0,0,.5,1.059l3.894,1.262c.022.007.044.013.067.019a.8.8,0,0,0,.429-1.547l-3.894-1.262q-.033-.011-.066-.018a.805.805,0,0,0-.929.488" transform="translate(0 -515.059)" fill="#313133"/>
        <path id="Trazado_905650" data-name="Trazado 905650" d="M418.934,1729.848a12.435,12.435,0,0,1-1.064-3.309l0,0a17.658,17.658,0,0,0,1.06,3.305" transform="translate(-410.518 -1696.162)" fill="#e20037"/>
        <path id="Trazado_905651" data-name="Trazado 905651" d="M394.279,577.02a18.439,18.439,0,0,1-18.388,18.439v5.328a.468.468,0,0,1-.738.382,70.141,70.141,0,0,1-12.942-11.728,25.744,25.744,0,0,1-3.3-5.1,18.285,18.285,0,0,1-1.1-3.422,18.441,18.441,0,1,1,36.466-3.9" transform="translate(-351.112 -548.752)" fill="#fed57b"/>
        <path id="Trazado_905652" data-name="Trazado 905652" d="M446.554,2027.818a18.459,18.459,0,0,1-3.3-5.1,25.749,25.749,0,0,0,3.3,5.1" transform="translate(-435.454 -1987.129)" fill="#f69f07"/>
        <path id="Trazado_905653" data-name="Trazado 905653" d="M134.464,511.708a1.653,1.653,0,0,1-.957-.306,68.246,68.246,0,0,1-12.739-11.552,26.02,26.02,0,0,1-3.341-5.171l-.015-.033a18.908,18.908,0,0,1-1.132-3.531,19.1,19.1,0,0,1-.426-4.018,19.022,19.022,0,1,1,20.267,18.972v3.981a1.659,1.659,0,0,1-1.658,1.658m-14.848-18.036a23.676,23.676,0,0,0,3.027,4.665,64.548,64.548,0,0,0,11.068,10.235V503.7l1.2,0a16.593,16.593,0,1,0-15.3-10.028" transform="translate(-113.816 -459.849)" fill="#313133"/>
        <path id="Trazado_905654" data-name="Trazado 905654" d="M207.805,1927.673a18.988,18.988,0,0,1-3.4-5.259l2.2-.991a23.642,23.642,0,0,0,3.035,4.681Z" transform="translate(-200.806 -1887.617)" fill="#313133"/>
        <path id="Trazado_905655" data-name="Trazado 905655" d="M1099.324,911a4.963,4.963,0,0,1-.1,1.1,1.389,1.389,0,0,1-1.062,1.109,4.134,4.134,0,0,1-1.085.12,4.231,4.231,0,0,1-1.094-.12,1.45,1.45,0,0,1-.694-.391,1.526,1.526,0,0,1-.359-.718,4.956,4.956,0,0,1-.1-1.1,5.157,5.157,0,0,1,.1-1.125,1.587,1.587,0,0,1,.359-.734,1.42,1.42,0,0,1,.694-.4,4.228,4.228,0,0,1,1.094-.12,4.131,4.131,0,0,1,1.085.12,1.473,1.473,0,0,1,.694.4,1.551,1.551,0,0,1,.367.734,5.164,5.164,0,0,1,.1,1.125m-.495-4.677a.66.66,0,0,1-.1.287.6.6,0,0,1-.279.215,2.113,2.113,0,0,1-.543.136,7.421,7.421,0,0,1-1.684,0,2.092,2.092,0,0,1-.535-.136.6.6,0,0,1-.279-.215.652.652,0,0,1-.1-.287l-.415-14.492a.626.626,0,0,1,.439-.63,2.514,2.514,0,0,1,.67-.152,9.729,9.729,0,0,1,1.061-.048,8.164,8.164,0,0,1,1.053.056,2.706,2.706,0,0,1,.662.16.777.777,0,0,1,.351.255.622.622,0,0,1,.1.359Z" transform="translate(-1075.561 -875.33)" fill="#313133"/>
      </g>
    </g>
  </g>
</svg>
