<svg xmlns="http://www.w3.org/2000/svg" xmlns:xlink="http://www.w3.org/1999/xlink" width="120" height="120" viewBox="0 0 120 120">
  <defs>
    <clipPath id="clip-path">
      <rect id="Rectángulo_404114" data-name="Rectángulo 404114" width="77" height="77" transform="translate(0.34 0.34)" fill="none"/>
    </clipPath>
  </defs>
  <g id="Grupo_1112350" data-name="Grupo 1112350" transform="translate(-739.671 -1714)">
    <g id="Grupo_1112342" data-name="Grupo 1112342" transform="translate(-463.364 1325.543)">
      <g id="Rectángulo_400898" data-name="Rectángulo 400898" transform="translate(1203.035 388.457)" fill="#c6e697" stroke="#fff" stroke-width="3" opacity="0.859">
        <rect width="120" height="120" rx="60" stroke="none"/>
        <rect x="1.5" y="1.5" width="117" height="117" rx="58.5" fill="none"/>
      </g>
      <g id="Rectángulo_400907" data-name="Rectángulo 400907" transform="translate(1203.035 388.457)" fill="none" stroke="#fff" stroke-width="3">
        <rect width="120" height="120" rx="60" stroke="none"/>
        <rect x="1.5" y="1.5" width="117" height="117" rx="58.5" fill="none"/>
      </g>
    </g>
    <g id="Grupo_1112343" data-name="Grupo 1112343" transform="translate(761.103 1735.646)">
      <g id="Grupo_1112340" data-name="Grupo 1112340" transform="translate(0.229 0.014)" clip-path="url(#clip-path)">
        <path id="Trazado_902904" data-name="Trazado 902904" d="M125.723,97.861a27.861,27.861,0,1,0-27.861,27.861,27.861,27.861,0,0,0,27.861-27.861" transform="translate(-59.114 -58.929)" fill="#ebedf0"/>
        <path id="Trazado_902905" data-name="Trazado 902905" d="M338.664,78c8.865,0,12.664,12.487,12.664,19.756a12.674,12.674,0,1,1-25.329,0C326,90.487,329.8,78,338.664,78m7.6,20.263a7.6,7.6,0,1,0-7.6,7.6,7.6,7.6,0,0,0,7.6-7.6" transform="translate(-274.588 -65.663)" fill="#fff"/>
        <path id="Trazado_902906" data-name="Trazado 902906" d="M365.6,158a7.6,7.6,0,1,1-7.6,7.6,7.6,7.6,0,0,1,7.6-7.6" transform="translate(-301.522 -132.999)" fill="#8ff3ad"/>
        <path id="Trazado_902907" data-name="Trazado 902907" d="M295.647,323.133c0,1.266-1.266,2.533-7.6,2.533h-.659a23.456,23.456,0,0,0-3.47-7.586c5.015.152,11.727,1.482,11.727,5.053" transform="translate(-239.169 -267.737)" fill="#ff96a9"/>
        <path id="Trazado_902908" data-name="Trazado 902908" d="M288.049,414c6.332,0,7.6,1.266,7.6,2.533,0,3.571-6.712,4.9-11.727,5.053A23.457,23.457,0,0,0,287.39,414Z" transform="translate(-239.169 -348.473)" fill="#ff96a9"/>
        <path id="Trazado_902909" data-name="Trazado 902909" d="M215.844,301.044a23.457,23.457,0,0,1,3.47,7.586c-4.192.013-7.447.177-10.017.431a23.725,23.725,0,0,0-6.256-11.221c7.117,1.064,8.08,3.191,11.866,3.191.3,0,.621,0,.937.013" transform="translate(-171.093 -250.702)" fill="#ff96a9"/>
        <path id="Trazado_902910" data-name="Trazado 902910" d="M219.314,411.711a23.457,23.457,0,0,1-3.47,7.586c-.317.013-.633.013-.937.013-3.787,0-4.749,2.128-11.866,3.191A23.725,23.725,0,0,0,209.3,411.28c2.571.253,5.826.418,10.017.431" transform="translate(-171.093 -346.184)" fill="#ff96a9"/>
        <path id="Trazado_902911" data-name="Trazado 902911" d="M61.927,64.214c3.381,1.393,6.066,4.065,6.066,8.726,0,10.131-7.6,17.73-19,17.73s-19-7.6-19-17.73c0-5.547,2.887-8.219,7.295-9.321A23.964,23.964,0,0,1,41.98,63a18.194,18.194,0,0,0,1.95,1.076,4.773,4.773,0,0,0-1.266,7.6c1.266-3.8,6.332-5.066,7.6-6.332,1.266,0,2.533,3.8,6.332,5.066,0,0,3.723-2.482-1.114-7.447a18.508,18.508,0,0,1,6.446,1.254" transform="translate(-25.446 -53.004)" fill="#ff96a9"/>
        <path id="Trazado_902912" data-name="Trazado 902912" d="M145.939,294.608a23.725,23.725,0,0,1,6.256,11.221,30.118,30.118,0,0,0-9.714,2.229,23.654,23.654,0,0,0-7.282-14.045c.355-.013.709-.013,1.076-.013a64.541,64.541,0,0,1,9.663.608" transform="translate(-113.992 -247.469)" fill="#ff96a9"/>
        <path id="Trazado_902913" data-name="Trazado 902913" d="M152.2,399.429a23.725,23.725,0,0,1-6.256,11.221,64.532,64.532,0,0,1-9.663.608c-.367,0-.722,0-1.076-.013a23.655,23.655,0,0,0,7.282-14.045,30.118,30.118,0,0,0,9.714,2.229" transform="translate(-113.992 -334.332)" fill="#ff96a9"/>
        <path id="Trazado_902914" data-name="Trazado 902914" d="M159.458,14c.013,3.8,0,7.6-3.8,7.6a1.517,1.517,0,0,1,.139.152,15.352,15.352,0,0,0-5.838.823l-.633-.57c-.038,0-.089-.013-.127-.013l.127-1.659c0-.165,0-.329.013-.494a16.044,16.044,0,0,0,5.053-2.039c2.254-1.71,2.533-1.266,5.066-3.8" transform="translate(-125.776 -11.794)" fill="#8ff3ad"/>
        <path id="Trazado_902915" data-name="Trazado 902915" d="M159.851,62.921c4.838,4.964,1.114,7.447,1.114,7.447-3.8-1.266-5.066-5.066-6.332-5.066L154,63.744a15.352,15.352,0,0,1,5.838-.823Z" transform="translate(-129.816 -52.965)" fill="#8ff3ad"/>
        <path id="Trazado_902916" data-name="Trazado 902916" d="M113.989,294.08a23.654,23.654,0,0,1,7.282,14.045,11.02,11.02,0,0,1-4.939,1.14H113.8c0-1.266-1.266-2.533-3.8-2.533V294.384a38.168,38.168,0,0,1,3.989-.3" transform="translate(-92.782 -247.537)" fill="#ff96a9"/>
        <path id="Trazado_902917" data-name="Trazado 902917" d="M121.271,391.14a23.655,23.655,0,0,1-7.282,14.045,38.176,38.176,0,0,1-3.989-.3V392.533c2.533,0,3.8-1.266,3.8-2.533h2.533a11.02,11.02,0,0,1,4.939,1.14" transform="translate(-92.782 -328.272)" fill="#ff96a9"/>
        <path id="Trazado_902918" data-name="Trazado 902918" d="M109.625,63.8l.633,1.558c-1.266,1.266-6.332,2.533-7.6,6.332a4.773,4.773,0,0,1,1.266-7.6,18.194,18.194,0,0,1-1.95-1.076,55.89,55.89,0,0,1,6.889.2c.038,0,.089.013.127.013Z" transform="translate(-85.441 -53.024)" fill="#8ff3ad"/>
        <path id="Trazado_902919" data-name="Trazado 902919" d="M96.144,26.572c-.013.165-.013.329-.013.494L96,28.725a55.891,55.891,0,0,0-6.889-.2C87.38,27.408,86,25.736,86,22c2.533,1.266,5.066,1.266,6.332,2.533a5.635,5.635,0,0,0,3.8,2.039Z" transform="translate(-72.581 -18.528)" fill="#8ff3ad"/>
        <path id="Trazado_902920" data-name="Trazado 902920" d="M89.8,374c2.533,0,3.8,1.266,3.8,2.533s-1.266,2.533-3.8,2.533S86,377.8,86,376.533,87.266,374,89.8,374" transform="translate(-72.581 -314.805)" fill="#fff"/>
        <path id="Trazado_902921" data-name="Trazado 902921" d="M56.13,392.533v12.348a27.4,27.4,0,0,1-5.091-1.089A21.177,21.177,0,0,1,46,390h6.332c0,1.266,1.266,2.533,3.8,2.533" transform="translate(-38.912 -328.272)" fill="#ff96a9"/>
        <path id="Trazado_902922" data-name="Trazado 902922" d="M56.13,296v12.348c-2.533,0-3.8,1.266-3.8,2.533H46a21.176,21.176,0,0,1,5.04-13.791A27.391,27.391,0,0,1,56.13,296" transform="translate(-38.912 -249.153)" fill="#ff96a9"/>
        <path id="Trazado_902923" data-name="Trazado 902923" d="M17.373,302.88a21.177,21.177,0,0,0-5.04,13.791h-3.8A2.481,2.481,0,0,1,6,314.139c0-1.95,2.254-8.4,11.373-11.259" transform="translate(-5.245 -254.944)" fill="#ff96a9"/>
        <path id="Trazado_902924" data-name="Trazado 902924" d="M12.332,390a21.177,21.177,0,0,0,5.04,13.791C8.254,400.929,6,394.483,6,392.533A2.481,2.481,0,0,1,8.533,390Z" transform="translate(-5.245 -328.272)" fill="#ff96a9"/>
        <path id="Trazado_902925" data-name="Trazado 902925" d="M104.95,304.247a.95.95,0,0,1-.95-.95V290.95a.95.95,0,1,1,1.9,0V303.3a.95.95,0,0,1-.95.95" transform="translate(-87.731 -244.103)" fill="#fff"/>
        <path id="Trazado_902926" data-name="Trazado 902926" d="M45.989,326.362a.948.948,0,0,1-.725-.335,22.338,22.338,0,0,1,0-28.812.95.95,0,1,1,1.449,1.229,20.438,20.438,0,0,0,0,26.354.95.95,0,0,1-.724,1.564" transform="translate(-33.861 -249.893)" fill="#fff"/>
        <path id="Trazado_902927" data-name="Trazado 902927" d="M137.431,304.024a.95.95,0,0,1-.94-.82,22.75,22.75,0,0,0-6.989-13.48.95.95,0,0,1,1.3-1.389,24.656,24.656,0,0,1,7.575,14.609.951.951,0,0,1-.942,1.08" transform="translate(-108.942 -242.487)" fill="#fff"/>
        <path id="Trazado_902928" data-name="Trazado 902928" d="M130.151,407.144a.95.95,0,0,1-.648-1.644,22.749,22.749,0,0,0,6.989-13.48.95.95,0,0,1,1.882.261,24.656,24.656,0,0,1-7.575,14.609.947.947,0,0,1-.648.255" transform="translate(-108.943 -329.282)" fill="#fff"/>
        <path id="Trazado_902929" data-name="Trazado 902929" d="M204.245,304.961a.95.95,0,0,1-.923-.729,22.769,22.769,0,0,0-6.006-10.772.95.95,0,0,1,1.346-1.34,24.671,24.671,0,0,1,6.507,11.67.951.951,0,0,1-.924,1.171" transform="translate(-166.043 -245.652)" fill="#fff"/>
        <path id="Trazado_902930" data-name="Trazado 902930" d="M197.99,418.4a.95.95,0,0,1-.673-1.62,22.77,22.77,0,0,0,6.005-10.772.95.95,0,0,1,1.847.442,24.669,24.669,0,0,1-6.507,11.67.947.947,0,0,1-.673.28" transform="translate(-166.043 -341.132)" fill="#fff"/>
        <path id="Trazado_902931" data-name="Trazado 902931" d="M282.338,321.565a.95.95,0,0,1-.92-.715,22.424,22.424,0,0,0-3.329-7.279.95.95,0,0,1,1.559-1.085,24.318,24.318,0,0,1,3.611,7.893.951.951,0,0,1-.921,1.185" transform="translate(-234.118 -262.687)" fill="#fff"/>
        <path id="Trazado_902932" data-name="Trazado 902932" d="M278.869,417.484a.95.95,0,0,1-.779-1.493,22.421,22.421,0,0,0,3.329-7.279.95.95,0,0,1,1.84.471,24.317,24.317,0,0,1-3.611,7.893.949.949,0,0,1-.78.407" transform="translate(-234.119 -343.421)" fill="#fff"/>
        <path id="Trazado_902933" data-name="Trazado 902933" d="M333.614,106.827A13.89,13.89,0,0,1,320,92.706a30.551,30.551,0,0,1,3.112-13.036c2.562-5.018,6.194-7.67,10.5-7.67s7.94,2.652,10.5,7.67a30.55,30.55,0,0,1,3.112,13.036,13.89,13.89,0,0,1-13.614,14.121m0-32.927c-8.278,0-11.714,12.249-11.714,18.806a11.725,11.725,0,1,0,23.429,0c0-6.558-3.436-18.806-11.714-18.806" transform="translate(-269.538 -60.613)" fill="#303e58"/>
        <path id="Trazado_902934" data-name="Trazado 902934" d="M360.548,169.1a8.548,8.548,0,1,1,8.548-8.548,8.558,8.558,0,0,1-8.548,8.548m0-15.2a6.649,6.649,0,1,0,6.649,6.649,6.656,6.656,0,0,0-6.649-6.649" transform="translate(-296.472 -127.949)" fill="#303e58"/>
        <path id="Trazado_902935" data-name="Trazado 902935" d="M387.483,204.432A3.487,3.487,0,0,1,384,200.95a.95.95,0,1,1,1.9,0,1.585,1.585,0,0,0,1.583,1.583.95.95,0,1,1,0,1.9" transform="translate(-323.406 -168.35)" fill="#fff"/>
        <path id="Trazado_902936" data-name="Trazado 902936" d="M43.946,90.07a20.418,20.418,0,0,1-14.427-5.328A18.188,18.188,0,0,1,24,71.39c0-5.467,2.7-8.913,8.014-10.242a.95.95,0,1,1,.461,1.843c-4.486,1.121-6.575,3.79-6.575,8.4,0,9.88,7.421,16.78,18.047,16.78s18.047-6.9,18.047-16.78c0-3.71-1.843-6.35-5.478-7.848a.95.95,0,1,1,.724-1.756c4.353,1.793,6.654,5.114,6.654,9.6a18.188,18.188,0,0,1-5.519,13.352A20.418,20.418,0,0,1,43.946,90.07" transform="translate(-20.396 -51.454)" fill="#303e58"/>
        <path id="Trazado_902937" data-name="Trazado 902937" d="M84.749,33.1a.95.95,0,0,1-.672-.278A5.441,5.441,0,0,1,82.492,28a6.014,6.014,0,0,1,1.728-3.317c-.226-.129-.452-.267-.674-.412C81.1,22.694,80,20.436,80,16.95a.95.95,0,0,1,1.375-.85,16.694,16.694,0,0,0,3.057,1.084,7.759,7.759,0,0,1,3.522,1.627.95.95,0,1,1-1.343,1.343,6.509,6.509,0,0,0-2.692-1.141c-.6-.17-1.256-.353-1.932-.595a5.319,5.319,0,0,0,2.593,4.255A17.587,17.587,0,0,0,86.434,23.7a.95.95,0,0,1,.006,1.7,4.034,4.034,0,0,0-2.073,2.9,3.538,3.538,0,0,0,.239,1.99c1.322-2.011,3.569-3.184,5.3-4.087a9.358,9.358,0,0,0,1.773-1.061.95.95,0,0,1,.672-.278c.959,0,1.611.789,2.435,1.789a9.931,9.931,0,0,0,3.693,3.134,2.462,2.462,0,0,0,.612-1.4c.113-1.212-.648-2.7-2.2-4.29a.95.95,0,1,1,1.36-1.326c2,2.055,2.92,4.021,2.728,5.844a4.4,4.4,0,0,1-1.767,3.055.949.949,0,0,1-.827.111,11.206,11.206,0,0,1-5.062-3.919,12.376,12.376,0,0,0-.829-.942,16.733,16.733,0,0,1-1.706.968c-1.949,1.017-4.374,2.283-5.132,4.559a.95.95,0,0,1-.9.65" transform="translate(-67.531 -13.478)" fill="#303e58"/>
        <path id="Trazado_902938" data-name="Trazado 902938" d="M178.356,17.65a.948.948,0,0,1-.761-.38l-.051-.05a.95.95,0,0,1,.672-1.621,2.4,2.4,0,0,0,1.791-.609c.744-.746.969-2.238,1.034-3.857a12.622,12.622,0,0,1-1.684,1.148,17.588,17.588,0,0,0-1.834,1.224.95.95,0,0,1-1.148-1.514,19.5,19.5,0,0,1,2.008-1.342,12.593,12.593,0,0,0,2.96-2.373.95.95,0,0,1,1.621.669c.009,2.825.019,5.747-1.612,7.384a4,4,0,0,1-2.422,1.125l-.005,0a.946.946,0,0,1-.569.19" transform="translate(-148.333 -6.744)" fill="#303e58"/>
        <path id="Trazado_902939" data-name="Trazado 902939" d="M144.95,9.5a.95.95,0,0,1-.95-.95c0-.173,0-.352.014-.545a11.8,11.8,0,0,1,2.8-7.726.95.95,0,0,1,1.343,1.343,10.157,10.157,0,0,0-2.243,6.463c0,.014,0,.028,0,.042-.01.128-.01.271-.01.421a.95.95,0,0,1-.95.95" transform="translate(-121.399 -0.011)" fill="#303e58"/>
        <path id="Trazado_902940" data-name="Trazado 902940" d="M84.749,374.965c-3.263,0-4.749-1.805-4.749-3.483S81.486,368,84.749,368s4.749,1.805,4.749,3.483-1.486,3.483-4.749,3.483m0-5.066c-1.871,0-2.849.8-2.849,1.583s.979,1.583,2.849,1.583,2.849-.8,2.849-1.583-.979-1.583-2.849-1.583" transform="translate(-67.531 -309.755)" fill="#303e58"/>
        <path id="Trazado_902941" data-name="Trazado 902941" d="M22.479,320.294c-.38,0-.739,0-1.11-.013a39.209,39.209,0,0,1-4.08-.312,28.5,28.5,0,0,1-5.255-1.126C2.942,315.99,0,309.416,0,306.68a3.318,3.318,0,0,1,1.022-2.533A3.318,3.318,0,0,1,0,301.614c0-2.736,2.942-9.31,12.038-12.165a28.53,28.53,0,0,1,5.262-1.126,39.184,39.184,0,0,1,4.077-.31c.363-.013.722-.013,1.1-.013a65.611,65.611,0,0,1,9.806.619,28.653,28.653,0,0,1,7.624,2.148,9.663,9.663,0,0,0,4.1,1.032c.314,0,.64,0,.975.013a28.87,28.87,0,0,1,8.017,1.3c2.109.73,4.622,2.139,4.622,4.706,0,3.087-4.568,3.483-8.548,3.483h-.659c-3.833.012-7.173.155-9.924.426a28.956,28.956,0,0,0-9.444,2.162l-.224.092-.415.17.415.17.222.091a28.951,28.951,0,0,0,9.446,2.163c2.751.271,6.091.414,9.927.426h.656c3.98,0,8.548.4,8.548,3.483,0,1.417-.8,3.384-4.622,4.706a28.889,28.889,0,0,1-8.026,1.3c-.326.013-.652.013-.966.013a9.663,9.663,0,0,0-4.1,1.032,28.661,28.661,0,0,1-7.627,2.148,65.615,65.615,0,0,1-9.8.618M3.49,305.1A1.5,1.5,0,0,0,1.9,306.68a8.962,8.962,0,0,0,2.07,4.708,16.984,16.984,0,0,0,8.637,5.644,26.65,26.65,0,0,0,4.92,1.052,37.446,37.446,0,0,0,3.9.3c.346.012.688.012,1.051.012a63.792,63.792,0,0,0,9.52-.6,27,27,0,0,0,7.181-2.024,11.444,11.444,0,0,1,4.828-1.178c.3,0,.6,0,.9-.012,5.379-.163,10.815-1.625,10.815-4.1,0-.991-2.486-1.583-6.649-1.583h-.659c-3.9-.012-7.3-.158-10.111-.435a30.984,30.984,0,0,1-9.983-2.3l-.222-.091a9.762,9.762,0,0,0-4.354-.977.95.95,0,0,1,0-1.9,9.762,9.762,0,0,0,4.354-.977l.224-.092a30.981,30.981,0,0,1,9.98-2.3c2.811-.277,6.212-.423,10.108-.435h.661c4.163,0,6.649-.592,6.649-1.583,0-2.479-5.436-3.941-10.806-4.1-.307-.012-.613-.012-.908-.012a11.443,11.443,0,0,1-4.828-1.178A26.99,26.99,0,0,0,32,290.5a63.788,63.788,0,0,0-9.522-.6c-.363,0-.7,0-1.042.012a37.447,37.447,0,0,0-3.9.3,26.671,26.671,0,0,0-4.927,1.052,16.989,16.989,0,0,0-8.642,5.646,8.962,8.962,0,0,0-2.07,4.708A1.5,1.5,0,0,0,3.49,303.2h0a.95.95,0,0,1,0,1.9" transform="translate(-0.195 -242.419)" fill="#303e58"/>
        <path id="Trazado_902942" data-name="Trazado 902942" d="M27.081,385.9H16.95a.95.95,0,1,1,0-1.9H27.081a.95.95,0,1,1,0,1.9" transform="translate(-13.662 -323.222)" fill="#303e58"/>
        <path id="Trazado_902943" data-name="Trazado 902943" d="M131.483,385.9H128.95a.95.95,0,1,1,0-1.9h2.533a.95.95,0,1,1,0,1.9" transform="translate(-107.932 -323.222)" fill="#303e58"/>
        <path id="Trazado_902944" data-name="Trazado 902944" d="M104.95,414.247a.95.95,0,0,1-.95-.95V400.95a.95.95,0,0,1,1.9,0V413.3a.95.95,0,0,1-.95.95" transform="translate(-87.731 -336.689)" fill="#303e58"/>
      </g>
    </g>
  </g>
</svg>
