<svg xmlns="http://www.w3.org/2000/svg" xmlns:xlink="http://www.w3.org/1999/xlink" width="120" height="120" viewBox="0 0 120 120">
  <defs>
    <clipPath id="clip-path">
      <rect id="Rectángulo_404116" data-name="Rectángulo 404116" width="72" height="89" transform="translate(0 0.066)" fill="none"/>
    </clipPath>
  </defs>
  <g id="Grupo_1112351" data-name="Grupo 1112351" transform="translate(-1160.671 -1714)">
    <g id="Grupo_1112346" data-name="Grupo 1112346" transform="translate(-42.364 1325.543)">
      <g id="Rectángulo_400898" data-name="Rectángulo 400898" transform="translate(1203.035 388.457)" fill="#c6e697" stroke="#fff" stroke-width="3" opacity="0.859">
        <rect width="120" height="120" rx="60" stroke="none"/>
        <rect x="1.5" y="1.5" width="117" height="117" rx="58.5" fill="none"/>
      </g>
      <g id="Rectángulo_400907" data-name="Rectángulo 400907" transform="translate(1203.035 388.457)" fill="none" stroke="#fff" stroke-width="3">
        <rect width="120" height="120" rx="60" stroke="none"/>
        <rect x="1.5" y="1.5" width="117" height="117" rx="58.5" fill="none"/>
      </g>
    </g>
    <g id="Grupo_1112348" data-name="Grupo 1112348" transform="translate(1184.671 1729.934)">
      <g id="Grupo_1112347" data-name="Grupo 1112347" clip-path="url(#clip-path)">
        <path id="Trazado_902976" data-name="Trazado 902976" d="M85.722,101.861a31.861,31.861,0,1,0-31.861,31.861,31.861,31.861,0,0,0,31.861-31.861" transform="translate(-18.017 -57.328)" fill="#ebedf0"/>
        <path id="Trazado_902977" data-name="Trazado 902977" d="M59.793,6c2.9,0,4.345,1.448,4.345,2.9s-1.448,2.9-4.345,2.9S54,8.9,54,8.9,56.9,6,59.793,6" transform="translate(-44.224 -4.914)" fill="#ebedf0"/>
        <path id="Trazado_902978" data-name="Trazado 902978" d="M194.345,6c2.9,0,5.793,2.9,5.793,2.9s-2.9,2.9-5.793,2.9S190,10.345,190,8.9,191.448,6,194.345,6" transform="translate(-155.604 -4.914)" fill="#ebedf0"/>
        <path id="Trazado_902979" data-name="Trazado 902979" d="M314.345,270A4.345,4.345,0,1,1,310,274.345,4.339,4.339,0,0,1,314.345,270" transform="translate(-253.881 -221.122)" fill="#ebedf0"/>
        <path id="Trazado_902980" data-name="Trazado 902980" d="M288.282,258.261a.493.493,0,0,1-.145.014,11.23,11.23,0,1,1,.145-.014m-.145-5.778a4.345,4.345,0,1,0-4.345-4.345,4.339,4.339,0,0,0,4.345,4.345" transform="translate(-227.674 -194.915)" fill="#8ff3ad"/>
        <path id="Trazado_902981" data-name="Trazado 902981" d="M110.62,98.345,96.138,112.827,86,102.689l4.345-4.345,5.793,5.793L106.275,94Z" transform="translate(-70.432 -76.983)" fill="#ff96a9"/>
        <path id="Trazado_902982" data-name="Trazado 902982" d="M189.431,7.965C185.7,7.965,184,5.9,184,3.983S185.7,0,189.431,0c3.308,0,6.43,3.083,6.561,3.215a1.086,1.086,0,0,1,0,1.536c-.131.131-3.253,3.215-6.561,3.215m0-5.793c-2.139,0-3.259.911-3.259,1.81s1.119,1.81,3.259,1.81a7.634,7.634,0,0,0,4.136-1.81,7.635,7.635,0,0,0-4.136-1.81" transform="translate(-150.691)" fill="#303e58"/>
        <path id="Trazado_902983" data-name="Trazado 902983" d="M54.879,7.965c-3.308,0-6.43-3.083-6.561-3.215a1.086,1.086,0,0,1,0-1.536C48.449,3.083,51.57,0,54.879,0,58.61,0,60.31,2.064,60.31,3.983s-1.7,3.983-5.431,3.983M50.743,3.983a7.635,7.635,0,0,0,4.136,1.81c2.139,0,3.259-.911,3.259-1.81s-1.119-1.81-3.259-1.81a7.634,7.634,0,0,0-4.136,1.81" transform="translate(-39.31)" fill="#303e58"/>
        <path id="Trazado_902984" data-name="Trazado 902984" d="M40.258,70.309c-4.688,0-11.37-6.321-16.249-15.372A70.449,70.449,0,0,1,16,21.431C16,17.135,20.5,16,22.879,16a1.086,1.086,0,1,1,0,2.172c-.19,0-4.707.058-4.707,3.259a68.269,68.269,0,0,0,7.749,32.476,41.843,41.843,0,0,0,7.887,10.656c2.435,2.271,4.786,3.573,6.45,3.573s4.014-1.3,6.45-3.573A41.848,41.848,0,0,0,54.6,53.906a68.271,68.271,0,0,0,7.748-32.475c0-3.2-4.517-3.258-4.709-3.259a1.086,1.086,0,0,1,0-2.172c2.379,0,6.879,1.135,6.879,5.431a70.449,70.449,0,0,1-8.008,33.505c-4.88,9.051-11.562,15.372-16.25,15.372" transform="translate(-13.104 -13.104)" fill="#303e58"/>
        <path id="Trazado_902985" data-name="Trazado 902985" d="M75.9,231.972c-3.056,0-9.207-1.023-16.061-7.878a1.086,1.086,0,0,1,1.536-1.536c4.6,4.6,9.9,7.242,14.525,7.242s9.923-2.639,14.525-7.242a1.086,1.086,0,0,1,1.536,1.536c-6.854,6.855-13.005,7.878-16.061,7.878" transform="translate(-48.745 -182.008)" fill="#303e58"/>
        <path id="Trazado_902986" data-name="Trazado 902986" d="M309.431,274.862a5.431,5.431,0,1,1,5.431-5.431,5.437,5.437,0,0,1-5.431,5.431m0-8.689a3.259,3.259,0,1,0,3.259,3.259,3.262,3.262,0,0,0-3.259-3.259" transform="translate(-248.967 -216.208)" fill="#303e58"/>
        <path id="Trazado_902987" data-name="Trazado 902987" d="M283.224,254.448a11.85,11.85,0,1,1,.258-.016,1.719,1.719,0,0,1-.258.016m-.2-2.131h0m.2-18.144a9.051,9.051,0,0,0-.032,18.1,1.1,1.1,0,0,1,.165-.014,9.045,9.045,0,0,0-.133-18.088" transform="translate(-222.76 -190.001)" fill="#303e58"/>
        <path id="Trazado_902988" data-name="Trazado 902988" d="M138.605,326.115a1.087,1.087,0,0,1-1.047-1.376,36.013,36.013,0,0,0,1.134-9.515V305.086a1.086,1.086,0,1,1,2.172,0v10.138a38.164,38.164,0,0,1-1.213,10.094,1.087,1.087,0,0,1-1.046.8" transform="translate(-112.623 -248.967)" fill="#303e58"/>
        <path id="Trazado_902989" data-name="Trazado 902989" d="M12.672,403.551C4.619,403.551,0,399.988,0,393.776a9.056,9.056,0,0,1,3.3-7.365,12.522,12.522,0,0,1,7.92-2.41c6.671,0,11.08,2.674,15.376,5.653a1.086,1.086,0,0,1,.43,1.176,18.287,18.287,0,0,1-5.824,9.734,13.377,13.377,0,0,1-8.534,2.987m-1.448-17.379c-5.668,0-9.051,2.842-9.051,7.6,0,6.284,5.71,7.6,10.5,7.6,5.675,0,10.035-3.772,12.05-10.381-3.926-2.679-7.759-4.825-13.5-4.825" transform="translate(0 -314.485)" fill="#303e58"/>
        <path id="Trazado_902990" data-name="Trazado 902990" d="M158.606,340.241c-9.424,0-14.892-3.795-19.716-7.143l-.9-.623a1.086,1.086,0,0,1,1.232-1.789q.453.312.906.627c4.785,3.321,9.733,6.755,18.477,6.755,4.342,0,7.523-1.1,9.726-3.354,3.611-3.7,3.955-10.075,3.815-15.823-.018-.854-.045-1.686-.071-2.49-.038-1.186-.075-2.307-.075-3.315a1.086,1.086,0,1,1,2.172,0c0,.973.036,2.076.074,3.244.026.81.053,1.648.071,2.512.151,6.2-.258,13.112-4.432,17.389-2.6,2.66-6.391,4.009-11.28,4.009" transform="translate(-112.625 -255.519)" fill="#303e58"/>
        <path id="Trazado_902991" data-name="Trazado 902991" d="M91.224,109a1.082,1.082,0,0,1-.768-.318L80.318,98.543a1.086,1.086,0,0,1,0-1.536l4.345-4.345a1.086,1.086,0,0,1,1.536,0l5.025,5.025,9.37-9.37a1.086,1.086,0,0,1,1.536,0l4.345,4.345a1.086,1.086,0,0,1,0,1.536L91.992,108.681a1.082,1.082,0,0,1-.768.318m-8.6-11.224,8.6,8.6L104.17,93.431l-2.808-2.809-9.37,9.37a1.086,1.086,0,0,1-1.536,0l-5.025-5.025Z" transform="translate(-65.517 -72.069)" fill="#303e58"/>
      </g>
    </g>
  </g>
</svg>
